<?xml version="1.0" encoding="UTF-8" standalone="no"?>
<!-- Created with Inkscape (http://www.inkscape.org/) -->

<svg
   xmlns:dc="http://purl.org/dc/elements/1.1/"
   xmlns:cc="http://creativecommons.org/ns#"
   xmlns:rdf="http://www.w3.org/1999/02/22-rdf-syntax-ns#"
   xmlns:svg="http://www.w3.org/2000/svg"
   xmlns="http://www.w3.org/2000/svg"
   xmlns:sodipodi="http://sodipodi.sourceforge.net/DTD/sodipodi-0.dtd"
   xmlns:inkscape="http://www.inkscape.org/namespaces/inkscape"
   id="svg2"
   version="1.1"
   inkscape:version="0.48.4 r9939"
   width="500"
   height="500"
   xml:space="preserve"
   sodipodi:docname="1clicktrips.ai"><metadata
     id="metadata8"><rdf:RDF><cc:Work
         rdf:about=""><dc:format>image/svg+xml</dc:format><dc:type
           rdf:resource="http://purl.org/dc/dcmitype/StillImage" /><dc:title></dc:title></cc:Work></rdf:RDF></metadata><defs
     id="defs6"><clipPath
       clipPathUnits="userSpaceOnUse"
       id="clipPath16"><path
         d="M 0,400 400,400 400,0 0,0 0,400 z"
         id="path18" /></clipPath><clipPath
       clipPathUnits="userSpaceOnUse"
       id="clipPath36"><path
         d="M 0,400 400,400 400,0 0,0 0,400 z"
         id="path38" /></clipPath><clipPath
       clipPathUnits="userSpaceOnUse"
       id="clipPath48"><path
         d="M 0,400 400,400 400,0 0,0 0,400 z"
         id="path50" /></clipPath></defs><sodipodi:namedview
     pagecolor="#ffffff"
     bordercolor="#666666"
     borderopacity="1"
     objecttolerance="10"
     gridtolerance="10"
     guidetolerance="10"
     inkscape:pageopacity="0"
     inkscape:pageshadow="2"
     inkscape:window-width="640"
     inkscape:window-height="480"
     id="namedview4"
     showgrid="false"
     inkscape:zoom="0.472"
     inkscape:cx="250"
     inkscape:cy="250"
     inkscape:window-x="780"
     inkscape:window-y="384"
     inkscape:window-maximized="0"
     inkscape:current-layer="g10" /><g
     id="g10"
     inkscape:groupmode="layer"
     inkscape:label="1clicktrips"
     transform="matrix(1.25,0,0,-1.25,0,500)"><g
       id="g12"><g
         id="g14"
         clip-path="url(#clipPath16)"><g
           id="g20"
           transform="translate(237.1042,340.8125)"><path
             d="m 0,0 c 0,0 -0.229,-2.02 0.208,-2.02 -4.979,-7.043 28.771,-66.043 17.73,-110.793 13.591,-0.166 26.166,-1.416 30,-2.25 -8.292,44.084 -20.126,97.594 -20.751,109.313 0,0 0.334,0.521 -0.687,1.812 C 25.479,-2.646 0,0 0,0"
             style="fill:#ffffff;fill-opacity:1;fill-rule:nonzero;stroke:none"
             id="path22" /></g><g
           id="g24"
           transform="translate(304.5,211.1667)"><path
             d="m 0,0 c 0,0 8.008,3.907 15.004,-1.838 l -0.196,-2.329 c 0,0 -5.725,5 -14.808,2.667 L 0,0 z"
             style="fill:#ffffff;fill-opacity:1;fill-rule:nonzero;stroke:none"
             id="path26" /></g><g
           id="g28"
           transform="translate(196.0933,191.7433)"><path
             d="M 0,0 1.907,2.257 -11.01,5.007 -11.677,2.503 0,0 z"
             style="fill:#ffffff;fill-opacity:1;fill-rule:nonzero;stroke:none"
             id="path30" /></g></g></g><g
       id="g32"><g
         id="g34"
         clip-path="url(#clipPath36)"><g
           id="g40"
           transform="translate(252.7006,317.125)"><path
             d="m 0,0 c 1.656,-1.338 3.545,-3.12 3.545,-3.12 0,0 -0.621,-7.063 0.35,-10.959 0.987,-3.964 10.691,-60.356 12.279,-64.937 2.5,-3.084 6.5,-4.334 6.5,-4.334 0,0 2.417,2.167 3.25,5.834 -0.248,3.823 -11.5,69.833 -19.083,74.75 0.5,2.25 0.833,5.25 0.833,5.25 C 5.828,4.115 2.966,5.874 2.966,5.874 2.966,5.874 0.562,4.666 0,0"
             style="fill:#ff8833;fill-opacity:1;fill-rule:nonzero;stroke:none"
             id="path42" /></g></g></g><g
       id="g44"><g
         id="g46"
         clip-path="url(#clipPath48)"><g
           id="g52"
           transform="translate(300.0274,217.5314)"><path
             d="M 0,0 C -0.018,0.136 -0.038,0.272 -0.051,0.409 -0.153,0.281 0.05,-0.538 0,0"
             style="fill:#003159;fill-opacity:1;fill-rule:nonzero;stroke:none"
             id="path54" /></g><g
           id="g56"
           transform="translate(235.8408,352.9602)"><path
             d="m 0,0 c 0.401,-3.046 1.263,-12.148 1.263,-12.148 1.158,-3.402 1.474,-6.302 3.603,-8.37 4.21,-4.38 9.139,-4.815 14.764,-9.565 0.471,-0.063 3.323,2.759 4.383,4.185 1.813,2.438 4.25,7.25 3.75,9.813 l -0.019,4.746 c 0.281,3.817 0.269,4.504 0.457,6.754 1.125,0.312 1.687,4.687 3.812,5.187 3.009,-2.437 4.813,13.688 2.438,11.875 3.375,21.063 -8.633,29.2 -23.75,27.125 C 4.326,38.727 -1.924,32.915 -3.674,24.102 -4.355,20.672 -4.424,16.04 -3.737,13.29 -7.674,14.602 -5.772,5.511 -4.167,2.393 -3.145,0.406 -1.549,-0.523 0,0"
             style="fill:#333333;fill-opacity:1;fill-rule:nonzero;stroke:none"
             id="path58" /></g><g
           id="g60"
           transform="translate(307.0417,201.6042)"><path
             d="m 0,0 c 0.56,-0.084 1.312,-7.167 -1.469,-8.542 -0.031,1.032 -0.183,1.746 -0.114,3.375 0.07,1.671 0.239,2.688 -0.149,3.917 C -1.901,-0.712 -1.074,0.161 0,0 m -6.11,4.548 c -1.78,3.1 -1.59,6.24 -1.88,9.28 l -3.26,11.047 c -0.83,2.62 -0.504,3.928 -1.167,7.417 -0.51,1.48 -0.333,4.336 -0.253,6.246 5.701,-3.996 3.989,-7.684 3.582,-13.29 0.88,-3.36 1.268,-5.75 2.148,-9.1 0.028,-0.19 0.042,-0.314 0.051,-0.408 0.463,-3.584 2.359,-7.049 0.779,-11.192 m -54.578,-171.027 c -8.312,3.187 -8.979,12.901 -9.062,16.312 0.506,3.102 2,6.125 2,6.125 0,0 3,4.125 5.698,5.808 l 1.681,-3.712 c 0.358,-3.021 1.007,-4.704 0.621,-7.221 -0.313,-4.75 -0.625,-10.687 0.779,-11.728 2.188,-1 3.533,-2.209 4.721,-2.834 -0.023,-1.651 0.5,-3.188 0.312,-4.063 -1.1,0.19 -4.375,0.313 -6.75,1.313 m -59.729,139.646 c 1.142,-1.513 4.258,0.875 4.281,2.867 0.019,1.656 2.466,1.56 3.933,1.603 0.71,0.021 -1.317,-1.095 -0.63,-2.345 0.062,-0.292 1.458,0.208 0.25,-1.563 l -18.792,-32.437 c -1.386,-2.504 -3.958,-3.302 -6.125,-0.042 -1.134,1.707 -1.055,1.254 -3.288,0.933 -1.223,-0.175 -2.529,-0.651 -3.405,0.837 -0.807,1.369 0.05,2.636 0.673,3.768 3.833,6.966 7.461,14.133 11.978,20.629 0.742,1.067 1.517,2.325 2.413,3.484 0.508,0.656 1.212,0.182 2.254,0.182 1.792,0.882 1.016,2.738 1.634,3.045 1.736,0.86 3.158,1.247 4.824,-0.961 M 10.61,8.147 c 0.641,-0.421 1.782,-1.594 1.782,-1.594 0.255,3.829 0.297,7.67 -0.072,11.525 -1.2,24.74 -4.57,49.07 -14.09,72.19 -0.56,1.68 -1.11,3.36 -1.67,5.04 -2.53,8.39 -4.74,16.87 -7.95,25.06 -1.74,4.45 -2.985,6.903 -9.26,7.75 -4.737,0.64 -17.4,4.4 -22.1,5.34 -0.938,-6 0.25,-11.75 1.062,-15.687 1.188,-6.938 5.563,-31.25 6.375,-38.5 0.938,-7.75 3.243,-20.233 3.438,-20.938 0.248,-0.757 5.439,-18.665 6.457,-23.72 0.681,-3.384 1.462,-7.094 1.481,-8.592 -2.75,0.375 -4.546,0.441 -7.443,0.697 -3.8,0.33 -6.383,0.493 -10.183,0.803 -2.838,0.232 -4.062,0.25 -8.062,0.187 0.5,1.75 1.92,8.324 2.339,10.72 1.973,11.28 2.661,18.468 -0.964,31.655 -5.307,19.307 -7.695,40.005 -17.875,57.625 -1.7,2.46 -2.814,3.915 -3.219,6.282 0,0 -0.2,2.279 -0.386,3.198 -2.68,-1.48 -3.39,-4.68 -5.94,-6.42 -7.85,-5.34 -16.449,-9.346 -25.389,-12.066 -4.78,-1.45 -6.566,-3.306 -7.066,-8.14 -0.563,-5.444 -0.393,-10.16 -1.333,-14.833 -0.5,-1.744 0.291,-2.979 0.166,-4.854 -0.125,-8 -4.883,-14.762 -1.833,-22.792 0.16,-0.4 -0.035,-1.435 -0.335,-2.005 -1.127,-1.028 -1.203,-3.015 -1.873,-4.245 -2.22,-10.06 -3.614,-18.408 -5.834,-28.458 -0.583,-2.333 -1.353,-4.937 -1.833,-6.667 -1.75,-6.21 -1.863,-12.12 -2.583,-18.5 -1.33,-7.45 -1.442,-16.591 -6.542,-23.041 -2.21,-2.78 -3.052,-5.53 -2.792,-9 0.1,-4.29 -1.848,-6.525 -3.958,-9.875 -2.412,-4.42 -5.375,-9.042 -8.225,-13.764 -1.539,-2.55 -3.37,-4.06 -6.36,-3.95 -6.39,0.23 -12.58,-1.31 -18.87,-1.96 -7.85,-1.03 -15.78,-1.49 -23.53,-3.27 -4.28,-1.33 -10.36,-8.574 -12.69,-11.21 -2.508,-2.146 -4.44,-3.76 -4.88,-6.9 -10.93,-12.78 -19.5,-27.25 -29.32,-40.82 -3.08,-4.26 -4.53,-8.61 -4.08,-13.94 0.2,-2.28 2.08,-4.02 1.32,-6.51 -1.17,-3.78 0.37,-7.12 2.13,-10.44 2.18,-4.09 5,-7.75 6.79,-12.14 2.13,-5.24 6,-8.235 10.59,-11.055 1.78,-1.09 5.875,-2.125 6.63,1.635 1.03,5.131 5.91,4.86 9.59,5.7 9.4,2.14 18.87,3.92 28.28,6.01 2.22,0.5 2.924,-0.035 4.125,-1.97 2.25,-3.625 6.465,-2.33 8.035,0.53 2.37,4.3 6.15,7.53 7.95,12.34 3.31,8.83 7.79,17.2 12.85,25.18 6.58,10.39 13.31,20.7 20.08,30.97 5.9,8.95 5.66,12.88 -1.39,20.72 -1.2,1.33 -3.844,3.019 -2.004,5.469 3.437,6.416 13.011,21.892 18.291,31.396 0.898,1.614 1.879,4.197 2.875,5.604 0.272,0.383 0.843,-0.071 1.375,-0.042 2.334,0.125 3.021,2.667 2.875,6.146 -0.138,3.315 0.834,5.958 -3.916,7.333 -1.597,0.462 -2.896,1.042 -3.885,1.489 0.325,0.548 1.908,1.309 1.281,2.032 -0.91,0.33 -9.43,2.5 -10.25,2.75 1.19,-0.25 9.151,-1.811 10.496,-2.25 0,0 1.021,0.146 2.687,-0.771 0.157,2.543 0.468,5.516 0.468,5.516 0.769,4.485 1.037,7.145 2.057,12.005 0.2,1.59 1.683,7.75 2.333,9.25 4.389,17.64 5,25 10.754,33.833 2.834,-13.233 -0.844,-26.803 -3.004,-39.333 -0.08,-1.35 -0.926,-7.013 -1.166,-8.333 -2.054,-9.421 -2.014,-16.264 -3.834,-25.084 3.597,-2.18 1.227,-0.93 3.597,-2.18 4.28,-2.24 10.82,-5.903 19.262,-8.204 0.538,-3.696 0.894,-3.374 1.141,-6.199 0.42,-4.64 1.18,-8.993 2,-13.583 0.59,-3.95 1.487,-9.237 2.167,-13.167 0.621,-4.359 2.311,-8.742 1.061,-13.132 -2.93,-4.65 -5.011,-8.135 -6.601,-13.335 -0.72,-2.8 -2.7,-5.32 -1.89,-8.46 -4.05,-15.05 -6.85,-30.54 -15.54,-43.94 -3.88,-5.99 -3.34,-12.99 -4.59,-19.58 -0.6,-3.2 0.5,-4.695 2.81,-5.345 3.471,-0.976 10.375,-2.75 10.375,-2.75 l 1.128,1.5 c 0,0 8.54,-4.046 9.872,-5.5 3.125,-2.625 13.736,-0.867 18.375,-0.5 3.476,0.275 4.438,-0.015 4.02,-3.485 -0.544,-4.515 0.171,-5.152 2.855,-6.265 1.927,-0.799 4.041,-1.419 6.22,-1.98 0.72,-0.185 0.809,1.709 1.389,1.23 5.141,-4.25 10.766,-5.25 10.766,-5.25 10.625,-2.5 17.97,-2.075 27.58,1.415 1.49,0.55 3.95,0.62 3.45,2.63 -0.39,1.62 -1.34,3.95 -3.88,4 -4.03,0.08 -7.978,2.62 -10.648,5.1 -7.27,6.77 -12.502,8.647 -10.958,20.998 0.301,2.411 -0.524,7.722 -1.064,9.452 -2.01,6.51 -3.9,13.07 -6.29,19.44 -2.25,5.98 -2.61,11.97 -1.4,18.13 1.69,8.62 1.477,17.087 -0.123,25.627 -0.75,2.75 0.243,6.607 0.833,8.667 0.333,1.083 1.056,3.167 0.833,5.333 -0.538,4.995 -0.496,9.498 2.084,13.878 2.23,3.78 6.783,8.265 6.203,13.125 3.02,9.81 5.09,19.83 6.66,29.96 0.36,2.37 0.15,6.23 2.3,6.51 2.71,0.35 2.518,-3.25 3.29,-5.65 0.991,-3.079 1.37,-7.22 6.33,-7.02 3.09,0.39 2.22,3.9 4.12,5.22 1.69,1.66 3.67,2.86 5.94,3.44 5.16,1.3 7.72,4.94 8.33,9.84 0.333,2.675 0.615,5.356 0.797,8.044 C 8.658,9.105 4.645,9.899 -2,9.083 c 0,0 5.917,2.625 12.61,-0.936"
             style="fill:#333333;fill-opacity:1;fill-rule:nonzero;stroke:none"
             id="path62" /></g></g></g></g></svg>